<svg xmlns="http://www.w3.org/2000/svg" width="720" height="960" viewBox="0 0 720 960">
  <rect width="720" height="960" fill="#f4f0e8"/>
  
  <defs><linearGradient id="s" x1="0" y1="0" x2="0" y2="1"><stop stop-color="#a9dcff"/><stop offset="1" stop-color="#f5d49f"/></linearGradient></defs>
  <rect width="720" height="560" fill="url(#s)"/>
  <circle cx="575" cy="150" r="54" fill="#ffd16b"/>
  <path d="M0 520 C130 450 230 500 335 455 C445 410 555 460 720 410 L720 650 L0 650Z" fill="#596f7b" opacity=".65"/>
  <rect y="560" width="720" height="400" fill="#56a7c9"/>
  <path d="M0 610 C130 590 230 635 360 610 C500 585 590 625 720 600" fill="none" stroke="#f7efe1" stroke-width="10" opacity=".65"/>
  <g transform="translate(98 420)">
    <rect x="0" y="0" width="270" height="280" rx="8" fill="#f4efe5"/>
    <rect x="25" y="40" width="72" height="96" fill="#5e8aa2"/>
    <rect x="155" y="40" width="72" height="96" fill="#5e8aa2"/>
    <rect x="104" y="135" width="70" height="145" fill="#d9d0c1"/>
    <path d="M-26 0 L135 -100 L296 0Z" fill="#e5ded1"/>
  </g>
  <rect x="0" y="820" width="720" height="140" fill="#f4f0e8" opacity=".9"/>
  
</svg>